# AST/ASF file generated using VICON BodyLanguage
# -----------------------------------------------
:version 1.10
:name VICON
:units
  mass 1.0
  length 0.45
  angle deg
:documentation
   .ast/.asf automatically generated from VICON data using
   VICON BodyBuilder and BodyLanguage model FoxedUp or BRILLIANT.MOD
:root
   order TX TY TZ RX RY RZ
   axis XYZ
   position 0 0 0  
   orientation 0 0 0 
:bonedata
  begin
     id 1 
     name lhipjoint
     direction 0.567149 -0.783011 0.255413 
     length 2.28399 
     axis 0 0 0  XYZ
  end
  begin
     id 2 
     name lfemur
     direction 0.34202 -0.939693 0  
     length 7.34031  
     axis 0 0 20  XYZ
    dof rx ry rz
    limits (-160.0 20.0)
           (-70.0 70.0)
           (-60.0 70.0)
  end
  begin
     id 3 
     name ltibia
     direction 0.34202 -0.939693 0   
     length 6.9833   
     axis 0 0 20   XYZ
    dof rx
    limits (-10.0 170.0)
  end
  begin
     id 4 
     name lfoot
     direction 0.136498 -0.375025 0.91691   
     length 2.33665   
     axis -90 7.62852e-016 20   XYZ
    dof rx rz
    limits (-45.0 90.0)
           (-70.0 20.0)
  end
  begin
     id 5 
     name ltoes
     direction 1.5367e-011 -4.21617e-011 1   
     length 1.15039   
     axis -90 7.62852e-016 20   XYZ
    dof rx
    limits (-90.0 20.0)
  end
  begin
     id 6 
     name rhipjoint
     direction -0.602854 -0.758518 0.247423   
     length 2.35775  
     axis 0 0 0  XYZ 
  end
  begin
     id 7 
     name rfemur
     direction -0.34202 -0.939693 0   
     length 7.43932   
     axis 0 0 -20   XYZ
    dof rx ry rz
    limits (-160.0 20.0)
           (-70.0 70.0)
           (-70.0 60.0)
  end
  begin
     id 8 
     name rtibia
     direction -0.34202 -0.939693 0   
     length 7.11893   
     axis 0 0 -20   XYZ
    dof rx
    limits (-10.0 170.0)
 end
 begin
     id 9 
     name rfoot
     direction -0.131771 -0.362037 0.922803   
     length 2.53019  
     axis -90 -7.62852e-016 -20   XYZ
    dof rx rz
    limits (-45.0 90.0)
           (-20.0 70.0)
  end
  begin
     id 10 
     name rtoes
     direction -1.53733e-011 -4.21932e-011 1   
     length 1.24596   
     axis -90 -7.62852e-016 -20   XYZ
    dof rx
    limits (-90.0 20.0)
  end
  begin
     id 11 
     name lowerback
     direction 0.0235427 0.999023 -0.0374125   
     length 2.21768   
     axis 0 0 0   XYZ
    dof rx ry rz
    limits (-20.0 45.0)
           (-30.0 30.0)
           (-30.0 30.0)
  end
  begin
     id 12 
     name upperback
     direction 0.0302156 0.996818 -0.073759   
     length 2.20352   
     axis 0 0 0   XYZ
    dof rx ry rz
    limits (-20.0 45.0)
           (-30.0 30.0)
           (-30.0 30.0)
  end
  begin
     id 13 
     name thorax
     direction 0.0187169 0.998235 -0.0563532   
     length 2.22103   
     axis 0 0 0   XYZ
    dof rx ry rz
    limits (-20.0 45.0)
           (-30.0 30.0)
           (-30.0 30.0)
  end
  begin
     id 14 
     name lowerneck
     direction -0.119528 0.987423 0.103481   
     length 1.72948   
     axis 0 0 0   XYZ
    dof rx ry rz
    limits (-20.0 45.0)
           (-30.0 30.0)
           (-30.0 30.0)
  end
  begin
     id 15 
     name upperneck
     direction 0.248049 0.963095 -0.104496   
     length 1.74979   
     axis 0 0 0   XYZ
    dof rx ry rz
    limits (-20.0 45.0)
           (-30.0 30.0)
           (-30.0 30.0)
  end
  begin
     id 16
     name head
     direction 0.0903589 0.994284 -0.056876  
     length 1.78268  
     axis 0 0 0   XYZ
    dof rx ry rz
    limits (-20.0 45.0)
           (-30.0 30.0)
           (-30.0 30.0)
  end
  begin
     id 17 
     name lclavicle
     direction 0.946008 0.242039 -0.215608  
     length 3.80783  
     axis 0 0 0   XYZ
    dof ry rz
    limits (-20.0 10.0)
           (0.0 20.0)
  end
  begin
     id 18 
     name lhumerus
     direction 1 -4.48991e-011 -2.25695e-027   
     length 4.83125   
     axis 180 -30 -90   XYZ
    dof rx ry rz
    limits (-60.0 90.0)
           (-90.0 90.0)
           (-90.0 90.0)
  end
  begin
     id 19
     name lradius
     direction 0.999991 0.00366712 -0.00211721   
     length 3.00391   
     axis 180 -30 -90   XYZ
    dof rx
    limits (-10.0 170.0)
  end
  begin
     id 20
     name lwrist
     direction 0.999991 0.00393016 -0.00141978   
     length 1.50195   
     axis -1.00488e-014 90 90   XYZ
    dof ry
    limits (-180.0 0.0)
 end
  begin
     id 21 
     name lhand
     direction 1 -4.49123e-011 2.72098e-026   
     length 1.2717   
     axis -1.73687e-014 90 90   XYZ
    dof rx rz
    limits (-90.0 90.0)
           (-45.0 45.0)
  end
  begin
     id 22 
     name lfingers
     direction 1 -4.48678e-011 5.4479e-026   
     length 1.02528   
     axis -3.47372e-014 90 90   XYZ
    dof rx
    limits (0.0 90.0)
  end
  begin
     id 23
     name lthumb
     direction 0.707107 -6.34851e-011 0.707107   
     length 1.4721   
     axis -90 45 -1.62303e-014   XYZ
    dof rx rz
    limits (-45.0 45.0)
           (-45.0 45.0)
  end
  begin
     id 24 
     name rclavicle
     direction -0.981723 0.189447 -0.0181673   
     length 3.74989  
     axis 0 0 0   XYZ 
    dof ry rz
    limits (-10.0 20.0)
           (-20.0 0.0)
  end
  begin
     id 25 
     name rhumerus
     direction -1 -4.48985e-011 2.38206e-027  
     length 4.61118   
     axis 180 30 90   XYZ
    dof rx ry rz
    limits (-90.0 60.0)
           (-90.0 90.0)
           (-90.0 90.0)
  end
  begin
     id 26 
     name rradius
     direction -1 -4.48977e-011 7.41019e-027   
     length 2.91491   
     axis 180 30 90   XYZ
    dof rx
    limits (-10.0 170.0)
  end
  begin
     id 27 
     name rwrist
     direction -1 -4.48549e-011 1.3624e-026   
     length 1.45745   
     axis -1.00488e-014 -90 -90   XYZ
    dof ry
    limits (-180.0 0.0)
  end
  begin
     id 28
     name rhand
     direction -1 -4.49107e-011 2.72109e-026   
     length 1.30769   
     axis -1.73687e-014 -90 -90   XYZ
    dof rx rz
    limits (-90.0 90.0)
           (-45.0 45.0)
  end
  begin
     id 29
     name rfingers
     direction -1 -4.48919e-011 5.44468e-026   
     length 1.05429   
     axis -3.47372e-014 -90 -90   XYZ
    dof rx
    limits (0.0 90.0)
  end
  begin
     id 30
     name rthumb
     direction -0.707107 -6.35315e-011 0.707107   
     length 1.51376   
     axis -90 -45 1.62303e-014   XYZ
    dof rx rz
    limits (-45.0 45.0)
           (-45.0 45.0)
  end
:hierarchy
  begin
    root lhipjoint rhipjoint lowerback
    lhipjoint lfemur
    lfemur ltibia
    ltibia lfoot
    lfoot ltoes
    rhipjoint rfemur
    rfemur rtibia
    rtibia rfoot
    rfoot rtoes
    lowerback upperback
    upperback thorax
    thorax lowerneck lclavicle rclavicle
    lowerneck upperneck
    upperneck head
    lclavicle lhumerus
    lhumerus lradius
    lradius lwrist
    lwrist lhand lthumb
    lhand lfingers
    rclavicle rhumerus
    rhumerus rradius
    rradius rwrist
    rwrist rhand rthumb
    rhand rfingers
  end

#!OML:ASF X:\für Bonn\!DataBase\2005_08_11_Bastian_Final\c3d\Bastian.ASF
:FULLY-SPECIFIED
:DEGREES
1
root 0.356825 17.2878 0.344391 174.389 -7.205 -174.806
lowerback 11.1226 -2.57295 -2.27646
upperback 3.09803 -3.91089 1.18284
thorax -2.75633 -2.06172 3.02686
lowerneck -9.82719 -5.21294 -3.84844
upperneck -1.05658 -6.38799 10.9527
head 1.96197 -2.72331 4.01326
rclavicle -1.19271e-015 -1.19271e-014
rhumerus 76.7247 17.6597 11.1453
rradius 41.2521
rwrist -69.3245
rhand -46.7497 -3.38168
rfingers 7.12502
rthumb -19.4666 -32.4272
lclavicle -1.19271e-015 -1.19271e-014
lhumerus 71.5946 -23.7079 -18.1717
lradius 30.7305
lwrist 15.1214
lhand -42.1683 15.2043
lfingers 7.12502
lthumb -15.0573 44.6367
rfemur -4.44998 0.20553 25.1764
rtibia 41.7283
rfoot -22.7377 -13.8836
rtoes -11.019
lfemur -0.788603 4.81778 -14.5816
ltibia 33.2503
lfoot -19.8701 -3.95044
ltoes -11.2561
2
root 0.35754 17.2997 0.349488 174.129 -7.03279 -174.616
lowerback 11.3954 -2.54039 -1.99264
upperback 3.22185 -3.85966 1.21249
thorax -2.7969 -2.04618 2.90487
lowerneck -9.74268 -5.24866 -4.0145
upperneck -1.1701 -6.41278 10.9788
head 1.91949 -2.74126 4.05451
rclavicle 2.93207e-015 1.59028e-015
rhumerus 76.8203 17.9669 11.1144
rradius 41.2442
rwrist -68.8458
rhand -46.773 -3.65777
rfingers 7.12502
rthumb -19.489 -32.701
lclavicle 2.93207e-015 1.59028e-015
lhumerus 71.0363 -23.9586 -16.9997
lradius 30.6438
lwrist 13.8628
lhand -42.1363 15.1126
lfingers 7.12502
lthumb -15.0265 44.5473
rfemur -4.5027 -0.0957741 25.3292
rtibia 42.1058
rfoot -22.0064 -13.6263
rtoes -11.0177
lfemur -0.725099 4.49803 -14.4447
ltibia 33.5629
lfoot -19.7271 -3.48486
ltoes -11.2404
3
root 0.358086 17.3133 0.356752 173.872 -6.88653 -174.405
lowerback 11.7051 -2.51141 -1.68286
upperback 3.3464 -3.81084 1.24717
thorax -2.8572 -2.0322 2.77581
lowerneck -9.74096 -5.2945 -4.11014
upperneck -1.24252 -6.45995 10.9374
head 1.90107 -2.76868 4.05529
rclavicle -3.21037e-014 1.11319e-014
rhumerus 76.8747 18.3169 10.9851
rradius 41.2107
rwrist -68.2659
rhand -46.8027 -3.86365
rfingers 7.12502
rthumb -19.5176 -32.904
lclavicle -3.21037e-014 1.11319e-014
lhumerus 70.5301 -24.1983 -15.8904
lradius 30.5167
lwrist 12.537
lhand -42.0614 15.0603
lfingers 7.12502
lthumb -14.9543 44.5004
rfemur -4.60175 -0.430329 25.4917
rtibia 42.497
rfoot -21.3911 -13.3733
rtoes -10.9276
lfemur -0.738023 4.20471 -14.2881
ltibia 33.9608
lfoot -19.5694 -3.03257
ltoes -11.559
4
root 0.360887 17.3294 0.364863 173.613 -6.78434 -174.196
lowerback 12.068 -2.49713 -1.38069
upperback 3.4514 -3.78085 1.27213
thorax -2.96515 -2.02631 2.64713
lowerneck -9.76763 -5.33369 -4.1306
upperneck -1.28896 -6.50681 10.8459
head 1.89043 -2.79584 4.02302
rclavicle -7.95139e-016 -7.15625e-015
rhumerus 76.8975 18.7363 10.6942
rradius 41.0999
rwrist -67.4902
rhand -46.7674 -4.03004
rfingers 7.12502
rthumb -19.4836 -33.0738
lclavicle -7.95139e-016 -7.15625e-015
lhumerus 70.042 -24.4555 -14.8783
lradius 30.3889
lwrist 11.2033
lhand -41.9589 15.0435
lfingers 7.12502
lthumb -14.8556 44.491
rfemur -4.73152 -0.796563 25.6564
rtibia 42.9374
rfoot -20.8845 -13.1503
rtoes -10.6591
lfemur -0.842552 4.11658 -14.0715
ltibia 34.4686
lfoot -19.3621 -2.76682
ltoes -12.3114
5
root 0.36418 17.3482 0.375072 173.338 -6.70087 -173.941
lowerback 12.4839 -2.48491 -1.0375
upperback 3.56454 -3.74942 1.32163
thorax -3.09351 -2.02129 2.5235
lowerneck -9.91306 -5.38375 -4.07759
upperneck -1.27298 -6.57798 10.6831
head 1.91708 -2.83216 3.94766
rclavicle 7.30534e-015 -1.74931e-014
rhumerus 76.8892 19.1642 10.275
rradius 40.926
rwrist -66.5923
rhand -46.6637 -4.2235
rfingers 7.12502
rthumb -19.384 -33.2774
lclavicle 7.30534e-015 -1.74931e-014
lhumerus 69.7198 -24.7107 -14.2291
lradius 30.2526
lwrist 10.2524
lhand -41.9571 15.0286
lfingers 7.12502
lthumb -14.8538 44.4762
rfemur -4.90809 -1.17098 25.8676
rtibia 43.4451
rfoot -20.4305 -12.9177
rtoes -10.2948
lfemur -1.04041 4.14075 -13.7687
ltibia 35.121
lfoot -19.1169 -2.62643
ltoes -13.3651
6
root 0.368242 17.367 0.394168 173.059 -6.67134 -173.683
lowerback 13.0217 -2.49549 -0.692084
upperback 3.65469 -3.74586 1.36826
thorax -3.31024 -2.0293 2.40797
lowerneck -10.1233 -5.41954 -3.95039
upperneck -1.2122 -6.63889 10.4873
head 1.9643 -2.86112 3.84602
rclavicle 7.18607e-014 -2.78299e-014
rhumerus 76.858 19.5969 9.68089
rradius 40.6785
rwrist -65.5963
rhand -46.476 -4.30887
rfingers 7.12502
rthumb -19.2035 -33.3808
lclavicle 7.18607e-014 -2.78299e-014
lhumerus 69.5066 -24.9934 -13.8742
lradius 30.1367
lwrist 9.58813
lhand -41.9688 15.0693
lfingers 7.12502
lthumb -14.8651 44.516
rfemur -5.16357 -1.66777 26.0617
rtibia 44.0351
rfoot -20.0092 -12.6605
rtoes -9.7497
lfemur -1.39414 4.35462 -13.414
ltibia 35.9605
lfoot -18.7873 -2.6396
ltoes -14.4764
7
root 0.372457 17.3825 0.42503 172.789 -6.67255 -173.406
lowerback 13.7087 -2.52002 -0.331649
upperback 3.70235 -3.75275 1.43354
thorax -3.65053 -2.04124 2.31623
lowerneck -10.3412 -5.45016 -3.8296
upperneck -1.1473 -6.69219 10.306
head 2.01455 -2.8855 3.75149
rclavicle -5.76972e-014 -7.95139e-016
rhumerus 76.7758 20.0495 8.86979
rradius 40.3667
rwrist -64.3907
rhand -46.2094 -4.38388
rfingers 7.12502
rthumb -18.9471 -33.4811
lclavicle -5.76972e-014 -7.95139e-016
lhumerus 69.4438 -25.3037 -13.8975
lradius 30.0581
lwrist 9.31784
lhand -42.0062 15.1801
lfingers 7.12502
lthumb -14.9011 44.6242
rfemur -5.52564 -2.22086 26.2664
rtibia 44.6796
rfoot -19.5302 -12.451
rtoes -9.19063
lfemur -1.94308 4.54681 -13.0574
ltibia 37.04
lfoot -18.3949 -2.65648
ltoes -15.5765
8
root 0.379047 17.3917 0.460982 172.502 -6.70173 -173.149
lowerback 14.4828 -2.53912 0.00376836
upperback 3.74783 -3.75217 1.48787
thorax -4.03853 -2.0505 2.23185
lowerneck -10.5915 -5.48953 -3.68809
upperneck -1.07803 -6.75787 10.1342
head 2.07247 -2.91392 3.6553
rclavicle 6.36111e-015 7.95139e-015
rhumerus 76.6263 20.4631 8.01078
rradius 40.0189
rwrist -63.189
rhand -45.8876 -4.41561
rfingers 7.12502
rthumb -18.6376 -33.5428
lclavicle 6.36111e-015 7.95139e-015
lhumerus 69.5369 -25.5869 -14.2215
lradius 30.0191
lwrist 9.34533
lhand -42.0788 15.3386
lfingers 7.12502
lthumb -14.971 44.7775
rfemur -5.9037 -2.80432 26.458
rtibia 45.3533
rfoot -19.0668 -12.2779
rtoes -7.85435
lfemur -2.63632 4.7688 -12.7076
ltibia 38.3775
lfoot -17.9491 -2.66828
ltoes -16.5707
9
root 0.389108 17.3975 0.489415 172.212 -6.89438 -172.868
lowerback 15.2155 -2.61169 0.341827
upperback 3.79964 -3.81657 1.53191
thorax -4.39497 -2.09284 2.14467
lowerneck -10.9337 -5.52963 -3.46855
upperneck -0.947762 -6.83578 9.93954
head 2.16337 -2.94451 3.53425
rclavicle 5.25785e-014 -2.78299e-014
rhumerus 76.5022 20.7796 7.55891
rradius 39.8208
rwrist -62.4524
rhand -45.6898 -4.41031
rfingers 7.12502
rthumb -18.4473 -33.5556
lclavicle 5.25785e-014 -2.78299e-014
lhumerus 69.7416 -25.8363 -14.8245
lradius 30.0386
lwrist 9.58374
lhand -42.1289 15.5327
lfingers 7.12502
lthumb -15.0194 44.968
rfemur -6.24887 -3.49564 26.6759
rtibia 46.022
rfoot -18.6283 -12.1657
rtoes -5.77956
lfemur -3.48117 4.94435 -12.3226
ltibia 39.9854
lfoot -17.4688 -2.73504
ltoes -17.3791
10
root 0.402049 17.4029 0.503934 171.908 -7.23021 -172.586
lowerback 15.8158 -2.71193 0.642429
upperback 3.88652 -3.92157 1.5962
thorax -4.63729 -2.15758 2.0992
lowerneck -11.3313 -5.58507 -3.2317
upperneck -0.779113 -6.9401 9.69006
head 2.27515 -2.98857 3.38842
rclavicle 4.27387e-014 -2.14687e-014
rhumerus 76.3771 21.0103 7.42425
rradius 39.7092
rwrist -61.9824
rhand -45.5554 -4.37449
rfingers 7.12502
rthumb -18.318 -33.532
lclavicle 4.27387e-014 -2.14687e-014
lhumerus 70.0981 -26.0452 -15.7425
lradius 30.1265
lwrist 10.1638
lhand -42.2363 15.7358
lfingers 7.12502
lthumb -15.1228 45.1633
rfemur -6.52643 -4.25329 26.8965
rtibia 46.7116
rfoot -18.3292 -12.1052
rtoes -4.56927
lfemur -4.47164 5.09278 -11.9311
ltibia 41.8599
lfoot -16.937 -2.77199
ltoes -18.3828
11
root 0.412969 17.3992 0.517337 171.629 -7.4573 -172.304
lowerback 16.3731 -2.79935 0.915787
upperback 3.98119 -4.01215 1.66812
thorax -4.84571 -2.2162 2.07301
lowerneck -11.7499 -5.60999 -2.96026
upperneck -0.629562 -7.00432 9.46492
head 2.38102 -3.01044 3.24759
rclavicle 1.23246e-014 -4.77083e-015
rhumerus 76.4159 21.0937 7.67093
rradius 39.6875
rwrist -61.8796
rhand -45.5332 -4.37178
rfingers 7.12502
rthumb -18.2967 -33.5313
lclavicle 1.23246e-014 -4.77083e-015
lhumerus 70.4561 -26.2094 -16.8841
lradius 30.2311
lwrist 10.8971
lhand -42.3723 15.9824
lfingers 7.12502
lthumb -15.2538 45.4
rfemur -6.83739 -4.90505 27.1204
rtibia 47.4469
rfoot -18.1395 -12.0201
rtoes -4.2392
lfemur -5.59444 5.28786 -11.5538
ltibia 44.0041
lfoot -16.3354 -2.66767
ltoes -19.2068
